<svg xmlns="http://www.w3.org/2000/svg" viewBox="0 0 189.73 230.52"><defs><style>.a,.k{fill:#332924;}.a,.h{stroke:#191311;}.a,.e,.g,.h,.j,.o{stroke-linecap:round;}.a,.g,.h,.j,.o{stroke-linejoin:round;}.a,.b,.d,.g,.h,.j,.l,.m,.o{stroke-width:2px;}.b,.c{fill:#af8052;}.b,.j{stroke:#7d4921;}.b,.d,.e,.l,.m{stroke-miterlimit:10;}.d,.g{fill:#333;}.d,.e,.g{stroke:#1a1a1a;}.e,.h,.j{fill:none;}.e{stroke-width:3px;}.f{fill:#fff;}.i{fill:#d85c72;opacity:0.5;isolation:isolate;}.l{fill:#435363;stroke:#263644;}.m,.o{fill:#e6e7e8;}.m{stroke:#a3a5a8;}.n{fill:#e24c32;}.o{stroke:#c4c6c8;}</style></defs><title>Artboard 1</title><path class="a" d="M131.77,64.43c-4.51,14.67-1,27.67-1.27,30.89-.78,10.43-13.32,21-40.21,20.45-7.94-.15-26.94-8.6-27.22-7.62S132.2,63,131.77,64.43Z"/><rect class="b" x="69.83" y="113.6" width="29.62" height="25.2"/><rect class="c" x="43.26" y="131.84" width="82.74" height="27.16"/><polygon class="b" points="104.73 155.69 119.88 164.99 158.96 127.74 178.63 76.9 166.79 70.24 143.77 118.52 104.73 155.69"/><path class="b" d="M44.46,197.49V131.73H39.24a12.55,12.55,0,0,0-12.55,12.55h0v54.21l-9.21,31H35.24Z"/><path class="d" d="M128.1,131.73H99.47c-1.8,11-6.49,19.92-15.37,26-9.19-7.31-13.58-16.07-14.24-26H41.45l10,97.79h65.65Z"/><path class="e" d="M69.85,131.73c0,15.62,13.4,25.7,14.24,25.95s12.09-7.43,15.8-25.84"/><path class="f" d="M69.71,188.54c0-.06.13-.07.26,0a1,1,0,0,1,.36.26,1.14,1.14,0,0,1,.25.44.65.65,0,0,1-.06.53,4.25,4.25,0,0,1-.52.74c-.3.41-.69.91-1.15,1.48s-1,1.19-1.53,1.85-1.12,1.27-1.68,1.84A16.26,16.26,0,0,1,64,197.1a3,3,0,0,1-1.25.66,1.56,1.56,0,0,1-1-.13A2.39,2.39,0,0,1,61,197a4,4,0,0,1-.61-1,6,6,0,0,1-.36-1.32,6.31,6.31,0,0,1,.06-2.32A9.88,9.88,0,0,1,60.9,190a13.47,13.47,0,0,1,1.21-2,16.38,16.38,0,0,1,1.38-1.69,9.84,9.84,0,0,1,1.29-1.17,2.5,2.5,0,0,1,.94-.49,1.52,1.52,0,0,1,.82.07,2.15,2.15,0,0,1,.64.39,2,2,0,0,1,.43.53,1.62,1.62,0,0,1,.19.48,2.31,2.31,0,0,0-.7.25,2.2,2.2,0,0,1,.9.39q.33.26.34.34a2.81,2.81,0,0,1-.21,1.5,4.87,4.87,0,0,1-1,1.55,7.36,7.36,0,0,1-1.83,1.35,9.2,9.2,0,0,1-2.6.9,7.83,7.83,0,0,0-.32,1.23A8.65,8.65,0,0,0,62.2,195a4.49,4.49,0,0,0,.08,1.08q.1.44.34.4a2.36,2.36,0,0,0,1-.56,14.36,14.36,0,0,0,1.29-1.22q.69-.73,1.4-1.62t1.37-1.75l1.19-1.6ZM66,187.2a10.67,10.67,0,0,0-1.41,1.66,19,19,0,0,0-1.2,2,4.94,4.94,0,0,0,1.48-.75,3,3,0,0,0,.81-.92,2.74,2.74,0,0,0,.31-1A4.69,4.69,0,0,0,66,187.2Z"/><path class="f" d="M86.82,185.68a.2.2,0,0,1,.27-.07h0a1,1,0,0,1,.34.31,1.46,1.46,0,0,1,.23.5.53.53,0,0,1-.06.46q-.16.22-.57.93t-1,1.62l-1.19,1.93q-.63,1-1.21,1.88t-1,1.43c-.3.38-.53.58-.67.6a1.08,1.08,0,0,1-.44,0A1.49,1.49,0,0,1,81,195a2.2,2.2,0,0,1-.48-.52,2,2,0,0,1-.29-.8,9.65,9.65,0,0,1,0-3.16,22.87,22.87,0,0,1,.68-3q.41-1.34.76-2.19c.24-.57.32-.84.25-.83a3.1,3.1,0,0,0-.49.49q-.44.48-1.06,1.21t-1.31,1.62q-.69.89-1.26,1.75a16.33,16.33,0,0,0-.92,1.54,1.88,1.88,0,0,0-.3,1,.3.3,0,0,1-.09.23.63.63,0,0,1-.39.17.85.85,0,0,1-.65-.37,3,3,0,0,1-.52-1.43,2.86,2.86,0,0,1,.13-1.21q.21-.73.55-1.59t.72-1.73q.38-.87.64-1.59-.11,0-.61.61l-1.23,1.49q-.73.9-1.54,2l-1.49,2q-.67,1-1.1,1.74a2.06,2.06,0,0,0-.38,1,.3.3,0,0,1-.09.23.63.63,0,0,1-.39.17,1,1,0,0,1-.65-.37A3,3,0,0,1,69,192a4.72,4.72,0,0,1,0-1.47,14.71,14.71,0,0,1,.44-1.86q.29-1,.69-2A8.09,8.09,0,0,1,71,185a8.31,8.31,0,0,1,.85-1.33,1.41,1.41,0,0,1,.77-.58,3,3,0,0,1,1.2,0c.32.08.5.24.54.47a1.17,1.17,0,0,1-.25.6l-.58,1q-.31.52-.57,1a1.33,1.33,0,0,0-.22.76.49.49,0,0,0,.07.15c0,.07.08.07.12,0l.42-.52,1-1.22,1.27-1.59q.69-.85,1.32-1.57L78,181a2.36,2.36,0,0,1,.52-.51,1.09,1.09,0,0,1,.65.13,2.67,2.67,0,0,1,.66.47,4.38,4.38,0,0,1,.54.61,1.4,1.4,0,0,1,.27.56,1.59,1.59,0,0,1-.3.54q-.3.43-.67,1T79,184.89a1.44,1.44,0,0,0-.25.83c0,.07,0,.1.1.09a2,2,0,0,0,.55-.47l1.07-1.13,1.35-1.46,1.35-1.46,1.07-1.13a2.39,2.39,0,0,1,.53-.47,1,1,0,0,1,.64.13,3.15,3.15,0,0,1,.66.47,3.42,3.42,0,0,1,.54.61,1.47,1.47,0,0,1,.26.56,2.3,2.3,0,0,1-.31,1.1q-.37.78-.94,1.85l-1.23,2.32q-.66,1.26-1.21,2.47a16.23,16.23,0,0,0-.87,2.31,4.39,4.39,0,0,0-.19,1.85c0,.12.14,0,.37-.26a9.8,9.8,0,0,0,.82-1.24c.32-.53.68-1.12,1.06-1.78l1.08-1.9.9-1.58A7.58,7.58,0,0,1,86.82,185.68Z"/><path class="f" d="M97.13,173.48q0,.13-.74.83a23.81,23.81,0,0,0-1.82,1.92,29,29,0,0,0-2.21,3,16.59,16.59,0,0,0-1.88,4,13.48,13.48,0,0,1,1-1,13.25,13.25,0,0,1,1.17-1,13.39,13.39,0,0,1,1.15-.76,2.83,2.83,0,0,1,.92-.38,1.29,1.29,0,0,1,.47,0,1.46,1.46,0,0,1,.53.24,1.91,1.91,0,0,1,.47.51,2.09,2.09,0,0,1,.29.81,6.11,6.11,0,0,1-.09,2.46,9.65,9.65,0,0,1-.89,2.32,12.83,12.83,0,0,1-1.37,2.05,16.57,16.57,0,0,1-1.52,1.64,10.56,10.56,0,0,1-1.39,1.11,3,3,0,0,1-.94.47,1.11,1.11,0,0,1-.86-.15,1.52,1.52,0,0,1-.51-.68,3.9,3.9,0,0,1-.25-1,8.84,8.84,0,0,1-.05-1.18,6.26,6.26,0,0,0-.24.91,8,8,0,0,1-.2.87,4,4,0,0,1-.25.66.49.49,0,0,1-.35.3,1.09,1.09,0,0,1-.39,0,1,1,0,0,1-.43-.2,1.37,1.37,0,0,1-.36-.47,2.12,2.12,0,0,1-.19-.83,12.19,12.19,0,0,1,.43-3.47,28.18,28.18,0,0,1,1.37-4,42.14,42.14,0,0,1,1.87-3.88,31.82,31.82,0,0,1,2.06-3.4,22,22,0,0,1,1.9-2.45,3,3,0,0,1,1.38-1,1,1,0,0,1,.69.15,2.83,2.83,0,0,1,.63.5A2.93,2.93,0,0,1,97,173,1.82,1.82,0,0,1,97.13,173.48Zm-2.9,8.37a2.36,2.36,0,0,0-.86.43,11.86,11.86,0,0,0-1.14.91,14.51,14.51,0,0,0-1.14,1.14,8.32,8.32,0,0,0-.85,1.09,5.62,5.62,0,0,0-.25,1.24,15.65,15.65,0,0,0-.11,1.66,10.46,10.46,0,0,0,.05,1.43q.07.6.23.58a1.75,1.75,0,0,0,1-.73,10.29,10.29,0,0,0,1-1.61l1-2a9.77,9.77,0,0,0,.75-2,12.23,12.23,0,0,0,.41-1.51c0-.48,0-.64-.09-.63Z"/><path class="f" d="M105.63,182.71c0-.06.13-.07.26,0a1,1,0,0,1,.36.26,1.14,1.14,0,0,1,.25.44.65.65,0,0,1-.06.53,4.25,4.25,0,0,1-.52.74c-.3.41-.69.91-1.15,1.48s-1,1.19-1.53,1.85-1.12,1.27-1.68,1.84a16.26,16.26,0,0,1-1.58,1.43,3,3,0,0,1-1.25.66,1.56,1.56,0,0,1-1-.13,2.39,2.39,0,0,1-.8-.65,4,4,0,0,1-.61-1,6,6,0,0,1-.36-1.32,6.31,6.31,0,0,1,.06-2.32,9.88,9.88,0,0,1,.77-2.26,13.47,13.47,0,0,1,1.21-2,16.38,16.38,0,0,1,1.38-1.69,9.84,9.84,0,0,1,1.29-1.17,2.5,2.5,0,0,1,.94-.49,1.52,1.52,0,0,1,.82.07,2.15,2.15,0,0,1,.64.39,2,2,0,0,1,.43.53,1.62,1.62,0,0,1,.19.48,2.31,2.31,0,0,0-.7.25,2.2,2.2,0,0,1,.9.39q.33.26.34.34a2.81,2.81,0,0,1-.21,1.5,4.87,4.87,0,0,1-1,1.55,7.36,7.36,0,0,1-1.83,1.35,9.2,9.2,0,0,1-2.6.9,7.83,7.83,0,0,0-.32,1.23,8.65,8.65,0,0,0-.15,1.35,4.49,4.49,0,0,0,.08,1.08q.1.44.34.4a2.36,2.36,0,0,0,1-.56,14.36,14.36,0,0,0,1.29-1.22q.69-.73,1.4-1.62t1.37-1.75l1.19-1.6Zm-3.71-1.34A10.67,10.67,0,0,0,100.5,183a19,19,0,0,0-1.2,2,4.94,4.94,0,0,0,1.48-.75,3,3,0,0,0,.81-.92,2.74,2.74,0,0,0,.31-1,4.69,4.69,0,0,0,0-1Z"/><path class="f" d="M114.94,181.17c0-.08.13-.09.27,0a1.06,1.06,0,0,1,.37.28,1.27,1.27,0,0,1,.25.45.57.57,0,0,1-.07.5c-.07.1-.23.36-.48.77l-.88,1.47-1.11,1.81a20.45,20.45,0,0,1-1.16,1.77c-.38.54-.72,1-1,1.37a1.41,1.41,0,0,1-.7.59,1.48,1.48,0,0,1-.87-.13,3.42,3.42,0,0,1-.81-.51,3.56,3.56,0,0,1-.61-.67,1.53,1.53,0,0,1-.28-.57,3,3,0,0,1,.2-1.14q.25-.82.64-1.88t.86-2.24q.48-1.18.87-2.22t.65-1.77a2.67,2.67,0,0,0,.23-1l-1,.44q-.61.28-1.2.51l-.69,1.31q-.37.72-.75,1.41T107,183q-.34.58-.54.88c-.13.2-.26.28-.4.24a.65.65,0,0,1-.35-.31,1.29,1.29,0,0,1-.18-.57.91.91,0,0,1,.13-.57,14.77,14.77,0,0,0,1-1.67l.67-1.35-.29.07h-.27a.68.68,0,0,1-.48-.21,2.47,2.47,0,0,1-.51-.56,2,2,0,0,1-.29-.59q-.07-.28.22-.32a3.28,3.28,0,0,0,.85-.33q.55-.28,1.23-.66t1.39-.84l1.33-.83,1-.63a2.67,2.67,0,0,1,.5-.27,1.08,1.08,0,0,1,.72.22,4.68,4.68,0,0,1,.84.7,6,6,0,0,1,.72.91,2.3,2.3,0,0,1,.37.83,2.64,2.64,0,0,1-.3,1q-.33.81-.85,1.93l-1.12,2.39q-.6,1.27-1.11,2.43t-.82,2.09a3.17,3.17,0,0,0-.25,1.32,2,2,0,0,0,.37-.47q.32-.46.79-1.18l1-1.57,1.07-1.66.91-1.43Z"/><polygon class="f" points="68.13 166.07 55.05 186.68 54.32 186.01 73.15 171.18 75.26 169.51 73.89 171.82 68.06 181.66 67.33 181 85.8 167.57 67.93 181.8 65.81 183.49 67.2 181.15 73.03 171.31 73.77 171.96 54.94 186.79 52.31 188.86 54.21 186.13 68.13 166.07"/><polygon class="f" points="81.96 207.4 103.87 193.64 105.71 192.49 104.55 194.33 97.05 206.33 96.4 205.62 117.46 195.57 96.85 206.51 95.22 207.38 96.2 205.8 103.7 193.8 104.39 194.5 81.96 207.4"/><path class="g" d="M44.81,131.74a22.88,22.88,0,0,1-8.25-3c-1,2.13,2.38,5.88,2.75,8.88.27,2.12-2.37,4-.87,6.88.25.47,5,5.75,3.5,9-1.14,2.48.9,5.92-.12,9.13-.87,2.75,4,4,4,4"/><path class="g" d="M122.38,131.74a22.88,22.88,0,0,0,8.25-3c1,2.13-2.37,5.88-2.75,8.88-.27,2.12,2.38,4,.88,6.88-.25.47-5,5.75-3.5,9,1.14,2.48-.9,5.92.13,9.13.88,2.75-4,4-4,4"/><path class="a" d="M70.61,109.85c-.28-2-4.91-5.86-5.22-4.37-.18.84-.47,2.55-.89,4.71a60.54,60.54,0,0,0-6-4.28C54.86,101.28,45.5,90.7,45,92.73,43.49,99,43.83,115.6,47,122.9c-9.44,14.61-3.66,26.21-2.07,28.88-5.25,11.58-1.77,20.43,1.73,23.21.17-.45.4-1,.64-1.56,1.51,4.49,5.65,10.85,6.78,10,1.41-1,12.32-10.06,2.91-26.14-.21-.35-.08-1-.76-1.22,8-10.25,7-18.12,4.41-23.23,1.23-.48,5.52-2.79,7.27-5.55C69.91,124.23,70.9,111.82,70.61,109.85Z"/><path class="h" d="M59.55,108.25c-.85,2.07-11.28,13-12.41,14.95"/><path class="h" d="M42.25,144c0,1.22,2.44,7.52,2.91,8.18,1.81-8,8.93-12.43,10.13-17.72"/><path class="h" d="M42.06,164.19c.56,3.48,2.07,8.93,4.61,10.81,1.5-4.8,10.25-18.15,10.81-21.72"/><path class="h" d="M54.1,183.46c3.29-1.69,8.37-10.62,6.21-18.43"/><path class="h" d="M52.78,140.69c1.79,2.44,4.89,9.87,4.61,13"/><path class="h" d="M54.57,118.87c.66,8.74,11,17.4,6.69,28.11"/><path class="b" d="M83.81,119.71c-10.89,0-36.06-16.15-36.06-36.06V54.94A36.06,36.06,0,0,1,83.8,18.87h0a36.06,36.06,0,0,1,36.06,36.06V83.65C119.88,103.56,94.7,119.71,83.81,119.71Z"/><circle class="i" cx="58.28" cy="87.98" r="6.57"/><circle class="i" cx="110.18" cy="87.98" r="6.57"/><path class="j" d="M77.41,88.73c.36,2.83,3.22,5,6.7,5s6.34-2.2,6.7-5"/><path class="k" d="M92.38,55.3l1.24-.54c.83-.35,2-.83,3.43-1.33s3.09-1.06,4.91-1.57a46.63,46.63,0,0,1,5.81-1.3,13,13,0,0,1,1.63-.14h.93a2.85,2.85,0,0,1,.75.17,14.41,14.41,0,0,1,2.86,1.11,18,18,0,0,1,4.26,3.1,16.4,16.4,0,0,1,2.35,2.86c.25.37.42.68.54.89l.18.32a.5.5,0,0,1-.85.53h0l-.19-.28c-.13-.18-.3-.46-.56-.78a15.15,15.15,0,0,0-2.38-2.47,16.44,16.44,0,0,0-4.09-2.51,12.69,12.69,0,0,0-2.51-.76,6.59,6.59,0,0,0-.68-.1h-.51a11.36,11.36,0,0,0-1.3.23,44.48,44.48,0,0,0-5.36,1.69c-1.7.64-3.25,1.3-4.57,1.91s-2.38,1.14-3.11,1.52L94,58.49a1.79,1.79,0,0,1-1.7-3.15Z"/><path class="k" d="M94.68,72.64l.6-.92A8.57,8.57,0,0,1,96,70.65a13.34,13.34,0,0,1,1.2-1.35,13.7,13.7,0,0,1,1.52-1.41,15.15,15.15,0,0,1,1.89-1.36,10.37,10.37,0,0,1,1.09-.59,7.78,7.78,0,0,1,1.16-.52c.41-.14.81-.32,1.23-.44l1.29-.31a12.54,12.54,0,0,1,5.23.17,11.7,11.7,0,0,1,2.28.91,10.16,10.16,0,0,1,1.84,1.18,10.58,10.58,0,0,1,1.36,1.23,7.41,7.41,0,0,1,.92,1.06l.74,1A1.5,1.5,0,1,1,115.37,72h0l-.11-.16-.57-.79a5.26,5.26,0,0,0-.7-.87,7.85,7.85,0,0,0-1-1,7.39,7.39,0,0,0-1.37-.95,8.93,8.93,0,0,0-1.69-.75,9.3,9.3,0,0,0-2-.34,9.47,9.47,0,0,0-2.09.08l-1,.21a9.76,9.76,0,0,0-1,.33,5.86,5.86,0,0,0-1,.4,8.1,8.1,0,0,0-.93.46,12.82,12.82,0,0,0-1.65,1.1,11.56,11.56,0,0,0-1.35,1.17,11.16,11.16,0,0,0-1,1.09c-.14.17-.28.31-.4.47l-.33.48-.63.9a1.08,1.08,0,0,1-1.79-1.2Z"/><path class="k" d="M117.26,65l-2,3.63a1,1,0,0,1-1.76-1,1.05,1.05,0,0,1,.13-.19l2.78-3.08a.53.53,0,1,1,.86.62Z"/><path class="k" d="M74.27,58.52l-1.19-.64c-.73-.38-1.79-.92-3.11-1.52s-2.87-1.27-4.57-1.91a44.47,44.47,0,0,0-5.4-1.7,11.36,11.36,0,0,0-1.3-.23h-.48a6.59,6.59,0,0,0-.68.1,12.69,12.69,0,0,0-2.51.76,16.44,16.44,0,0,0-4.09,2.51,15.16,15.16,0,0,0-2.38,2.47c-.26.32-.43.6-.56.78l-.19.28h0a.5.5,0,1,1-.85-.53h0l.18-.32a9.63,9.63,0,0,1,.54-.89A16.39,16.39,0,0,1,50,54.9a18,18,0,0,1,4.26-3.1,14.41,14.41,0,0,1,2.86-1.11,7,7,0,0,1,.75-.17h.93a13,13,0,0,1,1.63.14A46.63,46.63,0,0,1,66.24,52c1.81.51,3.48,1.06,4.91,1.57s2.6,1,3.43,1.33l1.24.54a1.79,1.79,0,1,1-1.42,3.29Z"/><path class="k" d="M71.82,73.66l-.64-.89-.34-.47c-.12-.16-.27-.3-.41-.47a11.15,11.15,0,0,0-1-1.07A11.48,11.48,0,0,0,68,69.61a12.81,12.81,0,0,0-1.67-1.07,8.17,8.17,0,0,0-.94-.45,5.94,5.94,0,0,0-1-.39c-.34-.1-.68-.23-1-.31l-1-.19a9.5,9.5,0,0,0-2.09,0,9.35,9.35,0,0,0-2,.37,8.94,8.94,0,0,0-1.68.78,7.42,7.42,0,0,0-1.36,1,7.83,7.83,0,0,0-1,1,5.27,5.27,0,0,0-.69.88L53,72l-.11.15a1.5,1.5,0,0,1-2.55-1.58l.09-.13h0l.72-1a7.4,7.4,0,0,1,.9-1.07,10.57,10.57,0,0,1,1.34-1.25,10.15,10.15,0,0,1,1.82-1.21A11.71,11.71,0,0,1,57.47,65a12.52,12.52,0,0,1,5.23-.26L64,65c.42.11.83.28,1.23.41a7.8,7.8,0,0,1,1.17.5,10.49,10.49,0,0,1,1.1.57,15.19,15.19,0,0,1,1.91,1.32A13.71,13.71,0,0,1,71,69.14a13.36,13.36,0,0,1,1.18,1.33,8.62,8.62,0,0,1,.82,1l.61.91a1.08,1.08,0,0,1-1.77,1.23Z"/><path class="k" d="M51.74,64.59l2.84,3A1,1,0,1,1,53.1,69a1.08,1.08,0,0,1-.14-.18l-2.08-3.59a.53.53,0,0,1,.85-.63Z"/><path class="f" d="M68.65,100.75H99.56s-1.87,9.94-16.23,9.94C71,110.69,68.65,100.75,68.65,100.75Z"/><path class="a" d="M90.3,26.06a9.84,9.84,0,0,1,4.06-4.8c3.53,2.4,49.5,32.86,7.62,96,46.26-40.9,39.94-114.8-8-112.68C58-14.69,2.44,46.23,56.31,114.49,29.51,64.85,76.9,20.56,78.17,21.13S86.35,24.23,90.3,26.06Z"/><path class="l" d="M127.21,217.73h-2.84a14.94,14.94,0,0,0-14.6,11.79h32A14.94,14.94,0,0,0,127.21,217.73Z"/><path class="m" d="M92.86,180.56a7.92,7.92,0,0,0-7.92-7.92h-76A7.92,7.92,0,0,0,1,180.54v49H92.86Z"/><circle class="f" cx="46.93" cy="202.54" r="7.71"/><path class="f" d="M39.19,191.11a1.9,1.9,0,0,1-.71.2,2.56,2.56,0,0,1-.91-.08A6,6,0,0,1,35.48,193l-.44.21a4.58,4.58,0,0,1-3.3.14,21.14,21.14,0,0,1-3.35,3.18l-.1.07a5.22,5.22,0,0,1-.49.28,5.51,5.51,0,0,1-2.5.59l-.35.48h0a4,4,0,0,1-1.24,1,2.4,2.4,0,0,1-2.13.25,2.24,2.24,0,0,1-.92,1.59h0s-.12-.12-.15-.11a2.67,2.67,0,0,1-2.19.09,2.11,2.11,0,0,1-1.18,1.58,2.89,2.89,0,0,1-.53.18,2.21,2.21,0,0,1-1.24,0,8.15,8.15,0,0,1-2.23,1.79,3.76,3.76,0,0,1-2.39.43,4.76,4.76,0,0,1-2.16-1,7.93,7.93,0,0,1-1.31.27,1.85,1.85,0,0,1-1.57-.57,2.52,2.52,0,0,1-.48-2.08,1.74,1.74,0,0,1,.93-1.29,1.8,1.8,0,0,1,.44-.16,7.42,7.42,0,0,1-.12-1,4.56,4.56,0,0,1,2.17-4.46l.1-.05a3.58,3.58,0,0,1,2.82-.3,2.17,2.17,0,0,1,1.29-1.87H13l.13-.07a1.92,1.92,0,0,1,1.68-.06,3.06,3.06,0,0,1,1.33-1.38l.12-.06a1.81,1.81,0,0,1,1.37-.06,2.64,2.64,0,0,1,1.16-1.31,2,2,0,0,1,.56-.19,2.57,2.57,0,0,1,.91,0l-.2-.52a13.53,13.53,0,0,1-.86-6,4.67,4.67,0,0,1,1.21-2.41h0a3,3,0,0,1,.8-.61c.56-.29,2-.76,3.65,1.12a8.27,8.27,0,0,1,1.58,5.57,4,4,0,0,1,2.06.82,6.71,6.71,0,0,1,.75-2.55v-.05a4.34,4.34,0,0,1,1.8-1.66,3,3,0,0,1,2.77-.05A2.18,2.18,0,0,1,35.06,181a2,2,0,0,1,1.43-.21,2.65,2.65,0,0,1,1-1,2,2,0,0,1,.54-.19c.88-.17,1.64.32,2.27,1.44a8.67,8.67,0,0,1,.48,1h0a.66.66,0,0,0,.1.25,2.32,2.32,0,0,0,.18-.3,1.39,1.39,0,0,1,.2-.31,2.13,2.13,0,0,1,.63-.49,1.83,1.83,0,0,1,2.43.71,2.52,2.52,0,0,1,.21,2.51,6.24,6.24,0,0,1-2.34,2.68h0a3.44,3.44,0,0,1-.93.2,2.76,2.76,0,0,1-1.11-.06l0,.52C40.41,188.58,40.56,190.4,39.19,191.11Z"/><path class="n" d="M43.2,182.67a.48.48,0,0,0-.82-.07A3.31,3.31,0,0,1,41,184.08c-.83.33-1.49-1.56-1.49-1.56s-.66-1.7-1.19-1.6-.83,1-.83,1a6.53,6.53,0,0,0-.14,2.33l-.08.08a14.17,14.17,0,0,0-1.12-2.16c-.2-.15-1,.3-1,.73a24.16,24.16,0,0,0,1.11,4.31,7.32,7.32,0,0,1-1.83,2.59c-1.07.78-1.72.2-1.72.2s2.72-2.5,1.32-5-3.37-.28-3.54.07a5.51,5.51,0,0,0-.36,4.52,2.31,2.31,0,0,0,.18.45,12.32,12.32,0,0,1-1.38,2s.27-4.18-2.8-4.44c-1.38-.09-1.54,1.67-1.54,1.67s1.37-5.11-.85-7.7c-1-1.24-1.84-1-2.37-.47a3.3,3.3,0,0,0-.87,1.65,12.09,12.09,0,0,0,.77,5.38c1.11,2.89,2.36,6.42,2.36,6.42a2.6,2.6,0,0,1-.85,1.22c-.54.32-1.16-1.49-1.16-1.49s-.88-2.79-1.13-3.21-.4-.63-1-.52-.82,1-.82,1-.34,3-.29,3.39v.18l-.13-.05s-.51-3.56-1.53-3.1-1.09,1.93-1.09,1.93-.17,2.47-.1,2.71l-.13-.05a16.94,16.94,0,0,0-1-2.93.56.56,0,0,0-.78-.16l-.05,0s-.69.26-.65.76a34.2,34.2,0,0,0,1.21,4.51,7.48,7.48,0,0,1-2.1,2.56c-1.06.56-1.31-.18-1.31-.18s3.24-3.35.82-5.45a2.19,2.19,0,0,0-2.28.06A3.12,3.12,0,0,0,7.86,199a6.85,6.85,0,0,0,.46,2h0a1.7,1.7,0,0,1-1.16.38c-.53-.12-.57.29-.57.29s-.18,1.24.59,1.16A15,15,0,0,0,9,202.45H9a3.8,3.8,0,0,0,2,1.08c1.62.28,3.34-1.87,3.34-1.87l.64-1s.45.81,1.18.59.94-.49.67-3.9a8.21,8.21,0,0,1,0-1.74l.07-.06a16.71,16.71,0,0,0,1.46,3.66,1.16,1.16,0,0,0,1.43.11s.69.16.38-1.4A12.53,12.53,0,0,1,20,194.8h.09s1,2.66,1.91,3.3,1.86-.77,1.86-.77a13.73,13.73,0,0,0,.7-1.2,4.23,4.23,0,0,0,2.94-.62,14.39,14.39,0,0,0,3.77-3.91,3.12,3.12,0,0,0,3.19.37,4.43,4.43,0,0,0,2.59-2.76,1.39,1.39,0,0,0,1.28.77c.87-.07.52-1.94.52-1.94l-.47-3.86.11-.06s1.14,2.07,2.49,1.8,2.3-2.2,2.3-2.2A.94.94,0,0,0,43.2,182.67ZM9.94,200.09c-.9-1.86-.1-3.29.53-3.1s.91,1.13.4,2.08S9.94,200.09,9.94,200.09Zm12.12-15.2s-.36-3.42.62-2.17.52,6.72.52,6.72A35.25,35.25,0,0,1,22.06,184.89Zm5.4,7.28a2.05,2.05,0,0,1-1.66,2.38l-.26,0a6,6,0,0,1-1-2.77c-.4-2.2,1.33-2.15,1.33-2.15S27.21,189.9,27.46,192.17Zm4.47-3.34a2.93,2.93,0,0,1-.44-2c0-1.49.87-1.11.87-1.11a1.29,1.29,0,0,1,.67,1.51,2.06,2.06,0,0,1-1.11,1.6Z"/><path class="b" d="M174.09,81.88a9.35,9.35,0,0,0,10.85-7.56h0l1.41-7.87.49-2.76,1.83-10.25A3.45,3.45,0,0,0,181.92,52q0,.1,0,.2l-1.83,10.25-20.82-3.72-1.9,10.62a9.35,9.35,0,0,0,7.56,10.85h0"/><path class="b" d="M170.49,55.09h0a3.45,3.45,0,0,1,2.78,4l-1.5,8.38a3.45,3.45,0,0,1-4,2.79h0a3.45,3.45,0,0,1-2.78-4l1.5-8.38A3.45,3.45,0,0,1,170.49,55.09Z"/><path class="b" d="M177.75,56.39h0a3.45,3.45,0,0,1,2.78,4L179,68.77a3.45,3.45,0,0,1-4,2.79h0a3.45,3.45,0,0,1-2.78-4l1.5-8.38A3.45,3.45,0,0,1,177.75,56.39Z"/><path class="b" d="M165.59,42.54h0a3.45,3.45,0,0,1,2.78,4l-2.9,16.19a3.45,3.45,0,0,1-4,2.79h0a3.45,3.45,0,0,1-2.78-4l2.9-16.19A3.45,3.45,0,0,1,165.59,42.54Z"/><path class="b" d="M154.12,68.72h0a3.45,3.45,0,0,1,2.52-4.14l9.3-2.31A2.38,2.38,0,0,1,168.83,64h0a4.51,4.51,0,0,1-3.33,5.44h0l-7.18,1.79A3.45,3.45,0,0,1,154.12,68.72Z"/><rect class="g" x="164.15" y="75.23" width="7" height="18.22" transform="translate(56.51 235.55) rotate(-80.39)"/><circle class="o" cx="163.06" cy="83.61" r="1.31"/><circle class="o" cx="171.54" cy="84.87" r="1.31"/></svg>